<svg width="125" height="40" viewBox="0 0 125 40" fill="none" xmlns="http://www.w3.org/2000/svg">
<g clip-path="url(#clip0_3_21)">
<path d="M88.861 37.225C89.62 37.225 90.069 36.65 90.069 35.751C90.069 34.819 89.587 34.277 88.877 34.277C88.471 34.277 88.189 34.457 87.978 34.743H87.968V33.27H87.528V37.143H87.968V36.775H87.978C88.206 37.089 88.482 37.225 88.861 37.225ZM88.829 36.856C88.233 36.856 87.94 36.385 87.94 35.756C87.94 35.15 88.222 34.651 88.834 34.651C89.365 34.651 89.62 35.128 89.62 35.756C89.62 36.39 89.365 36.856 88.829 36.856ZM90.812 38.07C91.153 38.07 91.37 37.95 91.597 37.37L92.795 34.342H92.329L91.689 36.087C91.603 36.32 91.505 36.634 91.505 36.634H91.495C91.495 36.634 91.391 36.32 91.305 36.087L90.644 34.342H90.167L91.261 37.062L91.153 37.338C91.045 37.609 90.92 37.68 90.736 37.68C90.6332 37.6852 90.5308 37.6646 90.438 37.62H90.416V38.01C90.536 38.059 90.644 38.07 90.812 38.07ZM93.918 37.143H94.655V33.27H93.918V37.143ZM96.457 37.225C97.318 37.225 97.909 36.585 97.909 35.756C97.909 34.927 97.319 34.288 96.457 34.288C95.596 34.288 95.005 34.928 95.005 35.756C95.005 36.586 95.595 37.225 96.457 37.225ZM96.457 36.661C96.002 36.661 95.753 36.298 95.753 35.756C95.753 35.215 96.002 34.846 96.457 34.846C96.907 34.846 97.161 35.215 97.161 35.756C97.161 36.298 96.907 36.661 96.457 36.661ZM99.476 38.091C99.888 38.091 100.245 37.994 100.478 37.777C100.684 37.587 100.809 37.322 100.809 36.932V34.364H100.099V34.657H100.088C99.92 34.424 99.666 34.288 99.318 34.288C98.615 34.288 98.116 34.819 98.116 35.648C98.116 36.488 98.723 36.975 99.341 36.975C99.693 36.975 99.904 36.835 100.066 36.65H100.083V36.954C100.083 37.333 99.883 37.534 99.465 37.534C99.124 37.534 98.967 37.398 98.907 37.224H98.176C98.251 37.766 98.717 38.091 99.476 38.091ZM99.466 36.385C99.086 36.385 98.836 36.109 98.836 35.637C98.836 35.171 99.086 34.879 99.46 34.879C99.904 34.879 100.121 35.225 100.121 35.632C100.121 36.044 99.931 36.385 99.465 36.385H99.466ZM102.6 37.225C103.461 37.225 104.052 36.585 104.052 35.756C104.052 34.927 103.461 34.288 102.6 34.288C101.738 34.288 101.148 34.928 101.148 35.756C101.148 36.586 101.738 37.225 102.6 37.225ZM102.6 36.661C102.145 36.661 101.895 36.298 101.895 35.756C101.895 35.215 102.145 34.846 102.6 34.846C103.049 34.846 103.304 35.215 103.304 35.756C103.304 36.298 103.049 36.661 102.6 36.661ZM104.394 37.143H105.131V34.364H104.394V37.143ZM104.394 33.931H105.131V33.27H104.394V33.931ZM105.606 38.053H106.343V36.83H106.353C106.511 37.069 106.765 37.226 107.155 37.226C107.87 37.226 108.358 36.656 108.358 35.757C108.358 34.89 107.887 34.289 107.15 34.289C106.989 34.2864 106.83 34.3236 106.688 34.3975C106.545 34.4713 106.423 34.5794 106.332 34.712H106.316V34.365H105.606V38.055V38.053ZM106.998 36.613C106.559 36.613 106.326 36.282 106.326 35.778C106.326 35.28 106.511 34.884 106.971 34.884C107.426 34.884 107.61 35.252 107.61 35.778C107.61 36.304 107.372 36.613 106.998 36.613ZM109.828 37.225C110.521 37.225 110.998 36.889 110.998 36.331C110.998 35.681 110.483 35.551 110.017 35.453C109.622 35.372 109.254 35.35 109.254 35.112C109.254 34.912 109.443 34.802 109.73 34.802C110.045 34.802 110.234 34.912 110.267 35.209H110.933C110.879 34.651 110.473 34.289 109.741 34.289C109.107 34.289 108.609 34.575 108.609 35.177C108.609 35.783 109.096 35.919 109.595 36.017C109.974 36.092 110.326 36.119 110.326 36.385C110.326 36.58 110.142 36.705 109.817 36.705C109.487 36.705 109.259 36.564 109.21 36.244H108.528C108.571 36.834 109.021 37.225 109.828 37.225ZM113.796 37.143V34.364H113.059V35.968C113.059 36.336 112.847 36.596 112.501 36.596C112.187 36.596 112.04 36.417 112.04 36.092V34.364H111.309V36.217C111.309 36.824 111.656 37.219 112.273 37.219C112.663 37.219 112.88 37.073 113.07 36.819H113.086V37.143H113.796ZM114.272 37.143H115.009V35.53C115.009 35.161 115.209 34.923 115.507 34.923C115.778 34.923 115.935 35.086 115.935 35.4V37.144H116.672V35.53C116.672 35.161 116.862 34.923 117.171 34.923C117.442 34.923 117.599 35.086 117.599 35.4V37.144H118.336V35.275C118.336 34.668 118.005 34.289 117.42 34.289C117.068 34.289 116.775 34.473 116.586 34.777H116.575C116.508 34.6294 116.4 34.5045 116.263 34.4178C116.126 34.3311 115.967 34.2863 115.805 34.289C115.643 34.2849 115.482 34.3245 115.34 34.4037C115.198 34.4828 115.08 34.5986 114.998 34.739H114.982V34.365H114.272V37.145V37.143Z" fill="#E5708C"/>
<path d="M118.481 2.14869C118.481 0.965694 119.44 0.00569434 120.623 0.00569434H122.052C122.62 0.00569434 123.165 0.231474 123.567 0.633364C123.969 1.03525 124.195 1.58034 124.195 2.14869C124.195 2.71705 123.969 3.26213 123.567 3.66402C123.165 4.06591 122.62 4.29169 122.052 4.29169H120.623C120.341 4.29169 120.063 4.23626 119.803 4.12855C119.543 4.02084 119.307 3.86297 119.108 3.66396C118.909 3.46495 118.751 3.2287 118.643 2.96871C118.536 2.70871 118.48 2.43007 118.481 2.14869ZM58.4896 14.2897C58.4896 22.1777 52.0956 28.5727 44.2066 28.5727C36.3186 28.5727 29.9236 22.1777 29.9236 14.2897C29.9236 6.39969 36.3186 0.00669434 44.2066 0.00669434C52.0956 0.00669434 58.4896 6.39969 58.4896 14.2897ZM27.1376 14.2187C27.9276 14.2187 28.5736 14.8587 28.4946 15.6447C28.2246 18.3345 27.1968 20.8925 25.5307 23.0213C23.8645 25.1502 21.6285 26.7625 19.0823 27.6708C16.5361 28.5792 13.7845 28.7463 11.1471 28.1528C8.50973 27.5593 6.09494 26.2294 4.1834 24.3179C2.27185 22.4064 0.942035 19.9916 0.348505 17.3542C-0.245025 14.7168 -0.0778988 11.9652 0.830461 9.419C1.73882 6.87284 3.35111 4.63675 5.47996 2.9706C7.6088 1.30445 10.1668 0.276669 12.8566 0.00669434C13.6416 -0.0733057 14.2826 0.574694 14.2826 1.36269V12.7897C14.2826 13.5797 14.9226 14.2187 15.7116 14.2187H27.1376ZM78.4866 31.4297C79.623 31.4297 80.713 31.8811 81.5165 32.6847C82.3201 33.4883 82.7716 34.5782 82.7716 35.7147C82.7716 36.8511 82.3201 37.9411 81.5165 38.7446C80.713 39.5482 79.623 39.9997 78.4866 39.9997H71.3456C70.2091 39.9997 69.1192 39.5482 68.3156 38.7446C67.512 37.9411 67.0606 36.8511 67.0606 35.7147C67.0606 34.5782 67.512 33.4883 68.3156 32.6847C69.1192 31.8811 70.2091 31.4297 71.3456 31.4297H78.4866ZM74.2016 28.5727C82.0906 28.5727 88.4856 22.1777 88.4856 14.2897C88.489 11.8666 87.8732 9.48291 86.6966 7.36469L89.0566 5.00469C89.3284 4.73273 89.544 4.40988 89.6911 4.05459C89.8382 3.69929 89.9138 3.31851 89.9137 2.93399C89.9136 2.54946 89.8378 2.16872 89.6906 1.81349C89.5433 1.45827 89.3276 1.13553 89.0556 0.863694C88.7836 0.591858 88.4608 0.376252 88.1055 0.229185C87.7502 0.0821186 87.3694 0.00647223 86.9849 0.0065651C86.6004 0.00665796 86.2196 0.0824882 85.8644 0.229726C85.5092 0.376964 85.1864 0.592727 84.9146 0.864694L82.8546 2.92469C80.3694 1.0266 77.3278 0.000662512 74.2006 0.00569434C66.3136 0.00669434 59.9196 6.39969 59.9196 14.2897C59.9196 22.1777 66.3136 28.5727 74.2016 28.5727ZM118.481 14.2897C118.481 22.1777 112.086 28.5727 104.197 28.5727C96.3086 28.5727 89.9136 22.1777 89.9136 14.2897C89.9136 6.39969 96.3086 0.00669434 104.197 0.00669434C112.086 0.00669434 118.481 6.40069 118.481 14.2897Z" fill="url(#paint0_linear_3_21)"/>
</g>
<defs>
<linearGradient id="paint0_linear_3_21" x1="-0.000401633" y1="15.9997" x2="119" y2="15.9997" gradientUnits="userSpaceOnUse">
<stop stop-color="#64C2DB"/>
<stop offset="0.307" stop-color="#7476ED"/>
<stop offset="0.604" stop-color="#C994DF"/>
<stop offset="1" stop-color="#E56F8C"/>
</linearGradient>
<clipPath id="clip0_3_21">
<rect width="125" height="40" fill="white"/>
</clipPath>
</defs>
</svg>
